<svg id="search_7_" data-name="search (7)" xmlns="http://www.w3.org/2000/svg" width="26" height="26" viewBox="0 0 26 26">
  <path id="Path_719" data-name="Path 719" d="M5.762,146.959l-.905,3.379-3.308.07a13.023,13.023,0,0,1-.1-12.139h0l2.945.54,1.29,2.927a7.758,7.758,0,0,0,.073,5.224Z" transform="translate(0 -131.247)" fill="#fbbb00"/>
  <path id="Path_720" data-name="Path 720" d="M274.115,208.176a13,13,0,0,1-4.634,12.566h0l-3.709-.189-.525-3.277a7.748,7.748,0,0,0,3.334-3.956h-6.951v-5.143h12.487Z" transform="translate(-248.342 -197.605)" fill="#518ef8"/>
  <path id="Path_721" data-name="Path 721" d="M50.1,316.834h0a13,13,0,0,1-19.589-3.977l4.213-3.449a7.732,7.732,0,0,0,11.141,3.959Z" transform="translate(-28.96 -293.697)" fill="#28b446"/>
  <path id="Path_722" data-name="Path 722" d="M48.468,2.993,44.257,6.441a7.731,7.731,0,0,0-11.4,4.048L28.625,7.021h0A13,13,0,0,1,48.468,2.993Z" transform="translate(-27.17)" fill="#f14336"/>
</svg>
